<?xml version="1.0" standalone="no"?>
<!DOCTYPE svg PUBLIC "-//W3C//DTD SVG 20010904//EN"
 "http://www.w3.org/TR/2001/REC-SVG-20010904/DTD/svg10.dtd">
<svg version="1.0" xmlns="http://www.w3.org/2000/svg"
 width="131.000000pt" height="135.000000pt" viewBox="0 0 131.000000 135.000000"
 preserveAspectRatio="xMidYMid meet">

<g transform="translate(0.000000,135.000000) scale(0.100000,-0.100000)"
fill="#000000" stroke="none">
<path d="M0 675 l0 -675 655 0 655 0 0 675 0 675 -655 0 -655 0 0 -675z m525
553 c58 -15 91 -34 136 -80 47 -48 54 -97 17 -122 -35 -25 -56 -19 -102 29
-51 52 -82 66 -148 67 -58 0 -114 -30 -148 -79 -35 -51 -41 -170 -12 -235 26
-60 79 -100 141 -106 67 -6 111 11 160 63 46 49 80 58 113 28 47 -42 -13 -139
-115 -184 -80 -35 -203 -33 -281 5 -210 103 -228 440 -31 578 44 31 152 58
200 51 17 -3 48 -10 70 -15z m-59 -256 c24 -16 34 -54 34 -131 0 -89 -8 -101
-69 -101 -59 0 -61 4 -61 104 0 105 13 136 58 136 15 0 32 -4 38 -8z m445
-172 c10 -6 26 -24 34 -40 15 -28 215 -538 215 -547 0 -2 -30 -3 -66 -1 l-67
3 -20 57 -21 58 -308 0 -308 0 0 108 0 107 62 -1 63 -2 3 -56 3 -56 224 0 224
0 -23 63 c-13 34 -34 90 -46 125 -13 34 -25 60 -28 57 -3 -3 -22 -49 -42 -103
l-35 -97 -63 -3 c-34 -2 -62 1 -62 5 0 30 115 291 136 311 27 24 90 30 125 12z
m-240 -607 l-37 -98 -72 -3 c-40 -2 -72 1 -72 5 0 4 18 50 41 101 l42 92 67 0
68 0 -37 -97z"/>
</g>
</svg>
